# xmcd
# Copyright (C) 1995-1998 Ti Kan
#
# Track frame offsets:
#       150
#       17097
#       36148
#       39242
#       46143
#       55593
#       75272
#       86878
#       103829
#       120630
#       139436
#       155787
#       174087
#
# Disc length: 2611 seconds
#
# Revision: 0
# Processed by: cddbd v1.4PL0 Copyright (c) Steve Scherf et al.
# Submitted via: CD-Transfer v1.0
#
DISCID=9d0a310d
DTITLE=Jingles-Teppiche - Tibor Lörincz
DYEAR=01
DGENRE=
TTITLE0=Sprenge Deine Grenzen
TTITLE1=Le Jeune
TTITLE2=Suxess
TTITLE3=Phone Call
TTITLE4=Wordpower
TTITLE5=Fit 4 Life
TTITLE6=One X One
TTITLE7=Chicken Soup
TTITLE8=Night Lights
TTITLE9=The Winner
TTITLE10=Time System
TTITLE11=Hill
TTITLE12=Grenzen - Reprisen
EXTD=
EXTT0=
EXTT1=
EXTT2=
EXTT3=
EXTT4=
EXTT5=
EXTT6=
EXTT7=
EXTT8=
EXTT9=
EXTT10=
EXTT11=
EXTT12=
PLAYORDER=
